<svg width="128" height="128" viewBox="0 0 128 128" fill="none" xmlns="http://www.w3.org/2000/svg">
<rect width="128" height="128" fill="#141414"/>
<path d="M38.52 93.96C31 93.96 25.2667 92.2533 21.32 88.84C17.3733 85.3733 15.4 80.28 15.4 73.56V56.44C15.4 49.72 17.3733 44.6533 21.32 41.24C25.2667 37.7733 31 36.04 38.52 36.04C43.7467 36.04 48.0133 36.92 51.32 38.68C54.68 40.3867 57.3467 42.9733 59.32 46.44L51.24 52.04C49.5867 49.48 47.8533 47.64 46.04 46.52C44.28 45.4 41.7733 44.84 38.52 44.84C34.4133 44.84 31.4 45.8267 29.48 47.8C27.6133 49.72 26.68 52.6 26.68 56.44V73.56C26.68 77.4 27.6133 80.3067 29.48 82.28C31.4 84.2 34.4133 85.16 38.52 85.16C42.04 85.16 44.76 84.5733 46.68 83.4C48.6533 82.1733 50.4133 80.2267 51.96 77.56L59.96 83.48C58.2533 85.9333 56.4933 87.9067 54.68 89.4C52.8667 90.8933 50.6533 92.04 48.04 92.84C45.48 93.5867 42.3067 93.96 38.52 93.96ZM92.6575 93.96C85.1375 93.96 79.4042 92.2533 75.4575 88.84C71.5108 85.3733 69.5375 80.28 69.5375 73.56V56.44C69.5375 49.72 71.5108 44.6533 75.4575 41.24C79.4042 37.7733 85.1375 36.04 92.6575 36.04C97.8842 36.04 102.151 36.92 105.458 38.68C108.818 40.3867 111.484 42.9733 113.458 46.44L105.378 52.04C103.724 49.48 101.991 47.64 100.178 46.52C98.4175 45.4 95.9108 44.84 92.6575 44.84C88.5508 44.84 85.5375 45.8267 83.6175 47.8C81.7508 49.72 80.8175 52.6 80.8175 56.44V73.56C80.8175 77.4 81.7508 80.3067 83.6175 82.28C85.5375 84.2 88.5508 85.16 92.6575 85.16C96.1775 85.16 98.8975 84.5733 100.818 83.4C102.791 82.1733 104.551 80.2267 106.098 77.56L114.098 83.48C112.391 85.9333 110.631 87.9067 108.818 89.4C107.004 90.8933 104.791 92.04 102.178 92.84C99.6175 93.5867 96.4442 93.96 92.6575 93.96Z" fill="white"/>
</svg>
